<?xml version="1.0" encoding="UTF-8" standalone="no"?>
<svg
   width="220.94894"
   zoomAndPan="magnify"
   viewBox="0 0 165.71171 142.89797"
   height="190.53062"
   preserveAspectRatio="xMidYMid meet"
   version="1.2"
   id="svg890"
   sodipodi:docname="icon.svg"
   inkscape:version="1.1.2 (b8e25be833, 2022-02-05)"
   xmlns:inkscape="http://www.inkscape.org/namespaces/inkscape"
   xmlns:sodipodi="http://sodipodi.sourceforge.net/DTD/sodipodi-0.dtd"
   xmlns="http://www.w3.org/2000/svg"
   xmlns:svg="http://www.w3.org/2000/svg">
  <sodipodi:namedview
     id="namedview892"
     pagecolor="#ffffff"
     bordercolor="#666666"
     borderopacity="1.0"
     inkscape:pageshadow="2"
     inkscape:pageopacity="0"
     inkscape:pagecheckerboard="0"
     showgrid="false"
     inkscape:zoom="0.85977564"
     inkscape:cx="236.68966"
     inkscape:cy="184.93197"
     inkscape:window-width="2000"
     inkscape:window-height="1036"
     inkscape:window-x="2391"
     inkscape:window-y="96"
     inkscape:window-maximized="1"
     inkscape:current-layer="svg890"
     fit-margin-top="5"
     fit-margin-left="5"
     fit-margin-right="5"
     fit-margin-bottom="5" />
  <defs
     id="defs879" />
  <g
     id="g3567"
     inkscape:label="icon"
     transform="translate(-290.39541,-173.41973)">
    <path
       style="fill:#d9d9d8;stroke-width:0.1875"
       d="m 320.28152,312.2999 c -0.44034,-0.32198 -1.67239,-3.72088 -4.49895,-12.41145 -1.27455,-3.91875 -3.89726,-11.76563 -5.82825,-17.4375 -7.39121,-21.71019 -15.89822,-47.73866 -15.8082,-48.36752 0.0733,-0.51234 1.12487,-0.61723 6.4494,-0.64339 5.88294,-0.0289 10.11008,0.35548 14.46257,1.31507 1.47553,0.3253 1.78922,0.46195 2.11691,0.92216 0.2116,0.29714 1.63804,4.31935 3.16988,8.93822 1.53185,4.61888 3.64558,10.88702 4.69717,13.92921 2.19163,6.34018 5.50843,16.25931 6.17565,18.46875 0.24915,0.825 0.51133,1.56842 0.58264,1.65204 0.0713,0.0836 0.65833,-1.05542 1.30451,-2.53125 1.83934,-4.20092 2.95286,-6.61715 4.21768,-9.15204 0.6432,-1.28906 1.27667,-2.68125 1.40772,-3.09375 0.4364,-1.37378 -0.21533,-1.28749 8.71983,-1.15434 7.43545,0.11081 8.81537,0.0656 10.90637,-0.35725 0.5173,-0.10462 0.70663,-0.0157 1.48202,0.69583 1.02418,0.93983 2.76973,3.09679 6.7374,8.3253 3.20953,4.22946 5.19803,6.45921 5.76034,6.45921 0.20874,0 0.89651,-0.37157 1.52835,-0.82569 1.33262,-0.95783 5.55506,-5.18168 5.55506,-5.55694 0,-0.13976 -1.80169,-2.07257 -4.00374,-4.29512 -2.20204,-2.22255 -5.84432,-6.02381 -8.09395,-8.44725 -7.24485,-7.80463 -6.62653,-7.19194 -6.97202,-6.90851 -0.63016,0.51701 -2.06143,2.95488 -2.57821,4.39147 -0.29397,0.81718 -0.5586,1.51579 -0.58808,1.55245 -0.0295,0.0367 -3.45484,0.054 -7.61192,0.0385 -6.37187,-0.0238 -7.60185,-0.0715 -7.83562,-0.30379 -0.24454,-0.24302 -0.16894,-0.48013 0.63993,-2.0072 2.5474,-4.80923 6.60567,-10.0014 10.5328,-13.47574 3.02263,-2.67411 3.52415,-3.02859 8.52125,-6.02289 4.44779,-2.66515 9.85808,-4.65777 16.1515,-5.94857 3.4508,-0.7078 5.05404,-0.8998 9.52556,-1.14087 2.01094,-0.10841 3.71318,-0.25537 3.78274,-0.32658 0.0696,-0.0712 0.21746,-2.91387 0.32865,-6.31699 0.22567,-6.90641 0.3801,-8.75676 1.04854,-12.5625 1.73077,-9.85421 5.05841,-17.64945 10.12509,-23.71875 1.26081,-1.51031 4.71054,-4.92416 6.08998,-6.02663 1.73349,-1.38543 4.00468,-2.78587 4.51806,-2.78587 0.4278,0 0.96553,0.49948 3.1599,2.93522 1.62018,1.79839 3.01993,3.55942 3.61406,4.54687 0.81094,1.34781 1.70923,2.34835 5.48711,6.11166 2.4846,2.475 6.70774,6.8625 9.38479,9.75 5.06381,5.46191 8.12514,8.59266 8.70626,8.90366 0.55465,0.29685 1.24933,-0.39052 1.39825,-1.3835 0.0685,-0.45689 0.2442,-0.8766 0.39041,-0.9327 0.39827,-0.15284 2.22814,1.46681 4.86917,4.30976 1.86813,2.01097 2.34699,2.63582 2.34699,3.06259 0,0.63414 -2.95641,4.69005 -5.47337,7.50894 -5.54681,6.21219 -13.74725,11.19456 -23.12038,14.04729 -3.91671,1.19205 -9.83338,2.25233 -15.75,2.82242 -2.16562,0.20867 -4.02187,0.38089 -4.125,0.38271 -0.56484,0.01 -0.66911,0.43972 -1.02579,4.22734 -0.20335,2.15956 -0.58152,5.06555 -0.84034,6.45774 -1.07844,5.80069 -3.17824,14.04223 -5.05356,19.83472 -0.6582,2.0331 -1.71523,5.42622 -2.34896,7.54028 -0.63373,2.11406 -1.86193,5.99531 -2.72932,8.625 -1.35392,4.10469 -3.00683,9.37221 -6.29543,20.0625 -0.39654,1.28906 -0.89109,2.81983 -1.09897,3.40172 -0.2079,0.58187 -0.43317,1.40293 -0.50059,1.82458 -0.0674,0.42165 -0.23312,0.85836 -0.36821,0.97048 -0.16941,0.14059 -3.53093,0.21443 -10.83192,0.23792 -12.25792,0.0394 -11.00638,0.26925 -11.952,-2.19476 -3.17387,-8.27018 -9.13554,-22.28389 -9.43717,-22.18335 -0.0949,0.0317 -0.5682,1.19201 -1.05173,2.57859 -0.48352,1.38658 -1.28246,3.49138 -1.77542,4.67732 -0.78519,1.88902 -3.51393,9.31764 -5.47548,14.90625 -0.36195,1.03125 -0.79253,1.98047 -0.95682,2.10937 -0.44583,0.3498 -21.38615,0.33983 -21.86514,-0.0105 z m 64.89114,-50.2077 c 1.05216,-2.10581 1.96949,-4.10334 2.0385,-4.43895 0.16964,-0.82483 -0.0625,-1.14709 -3.00515,-4.17105 -2.5504,-2.62091 -7.10179,-7.47043 -8.93065,-9.51563 -0.57635,-0.64453 -1.12897,-1.17187 -1.22805,-1.17187 -0.76768,0 -6.92739,2.8356 -8.10742,3.73222 l -0.44848,0.34079 1.09114,1.47911 c 0.60013,0.81352 3.58631,4.01195 6.63598,7.10762 4.7699,4.84188 9.32835,9.82025 9.54797,10.42753 0.17362,0.48013 0.63883,-0.2526 2.40616,-3.78977 z m 4.88571,-13.87313 c 0.53726,-3.43061 1.09684,-7.887 0.99744,-7.94358 -0.48506,-0.2761 -9.3219,0.70492 -9.69305,1.07608 -0.27535,0.27534 7.85194,8.64686 8.26192,8.51019 0.1024,-0.0341 0.29755,-0.77332 0.43369,-1.64269 z m 19.13891,-20.23903 c 0.75426,-0.098 1.45069,-0.2271 1.54763,-0.28698 0.0969,-0.0599 -0.0393,-0.39147 -0.3027,-0.7368 -0.52026,-0.68209 -7.38902,-7.59906 -7.54611,-7.59906 -0.12092,0 0.13723,8.45505 0.26445,8.66091 0.12825,0.20748 4.35075,0.18086 6.03673,-0.0381 z m 12.81921,-3.95636 c 1.78579,-0.85177 3.35835,-1.64747 3.49461,-1.76824 0.35784,-0.31719 -0.16347,-0.87731 -9.66949,-10.38975 -4.5813,-4.58439 -8.61199,-8.67515 -8.95708,-9.0906 -0.3451,-0.41544 -0.66396,-0.71458 -0.7086,-0.66474 -0.28077,0.31346 -2.27457,5.91647 -2.4342,6.8406 -0.36285,2.10062 -0.439,1.98287 4.74967,7.34544 2.57678,2.66314 5.6749,5.87427 6.88476,7.13584 2.0367,2.12379 2.24394,2.2881 2.79658,2.21694 0.32827,-0.0423 2.05796,-0.77373 3.84375,-1.62549 z m 11.13969,-5.57327 c 1.36881,-0.88924 5.23219,-4.31717 5.23219,-4.64246 0,-0.42606 -4.96624,-5.63149 -12.7839,-13.39961 -7.51311,-7.4655 -10.31567,-10.11364 -10.70344,-10.11364 -0.29332,0 -3.04232,3.16753 -4.04162,4.65696 -0.48251,0.71917 -0.87729,1.48681 -0.87729,1.70587 0,0.27133 1.96007,2.38376 6.1491,6.62709 3.38199,3.42585 7.30708,7.51045 8.72241,9.07686 3.90579,4.32274 6.3962,6.80822 6.82172,6.80822 0.2055,0 0.87187,-0.32368 1.48083,-0.71929 z"
       id="path1352"
       sodipodi:nodetypes="sssssssssssssssssssssssssssssssssssssssssssssssssssssssssssssssssssssssssssscssssssssssssssssssssssssssssssssssss" />
    <path
       style="fill:#17a5d5;stroke-width:0.1875"
       d="m 320.19272,311.83786 c -0.36919,-0.68985 -2.46276,-6.6951 -3.96971,-11.38691 -0.86121,-2.68125 -3.2047,-9.72656 -5.20776,-15.65625 -7.07252,-20.93679 -9.66112,-28.73186 -15.0371,-45.28125 -1.5156,-4.66562 -1.67166,-5.24706 -1.48814,-5.54402 0.129,-0.20872 1.28554,-0.25444 6.21593,-0.2457 5.14211,0.009 6.53387,0.0736 9.21034,0.42684 2.91603,0.38487 6.35128,1.02801 6.72525,1.25914 0.3719,0.22986 0.98358,1.82948 2.68655,7.02574 0.99418,3.03352 3.07407,9.18581 4.62197,13.67175 3.61973,10.49023 5.81631,17.05299 6.80916,20.34375 0.48598,1.61083 0.89332,2.64486 1.05431,2.67637 0.17749,0.0348 0.71211,-0.99635 1.65272,-3.1875 0.7647,-1.78138 2.27224,-5.05293 3.35008,-7.27012 1.07784,-2.21719 2.06458,-4.36875 2.19272,-4.78125 l 0.23301,-0.75 9.16691,-0.0937 c 6.75157,-0.0691 9.306,-0.15551 9.69482,-0.32814 0.65912,-0.29269 0.88548,-0.1737 2.114,1.1112 1.1664,1.21991 2.31675,2.66122 6.18058,7.74384 3.10422,4.08339 5.10124,6.37402 5.73137,6.57403 0.61238,0.19436 2.14131,-0.94237 4.89927,-3.64252 1.9443,-1.90354 2.57812,-2.63871 2.57812,-2.99024 0,-0.35581 -0.98856,-1.46859 -4.17667,-4.70154 -3.95507,-4.01066 -13.14167,-13.76512 -14.01,-14.87601 -0.72482,-0.9273 -1.21589,-0.64725 -2.54796,1.45313 -0.39242,0.61875 -0.97772,1.8 -1.30065,2.625 l -0.58716,1.5 -7.2044,0.0192 c -3.96242,0.0105 -7.35207,-0.0163 -7.53253,-0.0595 -0.18047,-0.0433 -0.32813,-0.19935 -0.32813,-0.34684 0,-0.62252 2.9448,-5.5092 4.97113,-8.24919 2.51548,-3.40144 7.60301,-8.29033 10.51166,-10.10128 6.83164,-4.25338 8.17941,-4.9203 13.57971,-6.71972 5.09651,-1.69819 10.31569,-2.61735 16.55348,-2.91529 1.84996,-0.0884 3.42223,-0.24679 3.53126,-0.35582 0.119,-0.119 0.26038,-2.22056 0.35842,-5.32777 0.25624,-8.12143 0.42833,-10.13698 1.23053,-14.41249 1.09367,-5.82908 2.43482,-10.13376 4.46885,-14.34375 2.56266,-5.30415 5.84828,-9.56801 10.54525,-13.68501 1.73525,-1.52098 4.80845,-3.65874 5.25971,-3.65874 0.6426,0 5.31193,5.24722 6.65835,7.48245 0.81047,1.34544 1.71574,2.35374 5.48683,6.1113 2.48393,2.475 6.79095,6.94166 9.57115,9.92591 6.58528,7.0686 8.44691,8.91784 8.97761,8.91784 0.57585,0 1.19254,-0.71181 1.3742,-1.58618 0.0834,-0.40151 0.23847,-0.75894 0.34455,-0.7943 0.28523,-0.0951 2.27192,1.7655 4.70717,4.40837 2.4741,2.68502 2.44326,2.55266 1.04955,4.50579 -6.43365,9.01594 -13.90631,14.65241 -24.51778,18.49328 -3.02156,1.09365 -5.73399,1.77911 -10.31788,2.60737 -3.48304,0.62936 -4.67158,0.78484 -10.21807,1.33658 -1.90941,0.18993 -2.77725,0.35128 -2.91694,0.54232 -0.10937,0.14959 -0.34712,1.94453 -0.5283,3.98874 -0.48743,5.49912 -1.4665,10.54497 -3.61352,18.62303 -0.67153,2.52656 -1.59111,5.69062 -2.04351,7.03125 -0.4524,1.34062 -1.62354,5.09531 -2.60252,8.34375 -0.97897,3.24844 -2.29314,7.425 -2.92036,9.28125 -0.62723,1.85625 -1.73378,5.31562 -2.45901,7.6875 -0.72521,2.37187 -2.12629,6.84375 -3.11349,9.9375 -0.98721,3.09375 -1.90005,6.06114 -2.02855,6.59421 -0.12847,0.53306 -0.28997,1.0604 -0.35885,1.17187 -0.0874,0.14134 -3.31894,0.20267 -10.67888,0.20267 -9.81405,0 -10.57423,-0.023 -10.84768,-0.32813 -0.26475,-0.2954 -1.27712,-2.73151 -5.66859,-13.64062 -0.74723,-1.85625 -2.00254,-4.83039 -2.78955,-6.60921 -0.78702,-1.77881 -1.43093,-3.30832 -1.43093,-3.3989 0,-0.0906 -0.1308,-0.27328 -0.29066,-0.40596 -0.44258,-0.36729 -0.71711,0.036 -1.37591,2.02131 -0.31617,0.95272 -1.16095,3.18866 -1.87729,4.96875 -0.71636,1.78007 -1.99168,5.17713 -2.83405,7.54901 -0.84238,2.37187 -1.95046,5.45156 -2.4624,6.84375 -0.51195,1.39219 -0.96558,2.63672 -1.00811,2.76562 -0.0607,0.18392 -2.41839,0.23438 -10.95159,0.23438 -10.21084,0 -10.88513,-0.0203 -11.05189,-0.33184 z m 53.52769,-32.24239 c -0.1906,-0.19059 -0.34787,0.0964 -0.1915,0.34939 0.11815,0.19114 0.1623,0.19129 0.22583,0 0.0434,-0.13025 0.028,-0.28783 -0.0343,-0.35014 z m 9.88633,-13.8789 c 0.24302,-0.38671 1.26943,-2.41753 2.28092,-4.51291 1.82769,-3.78623 1.83731,-3.81353 1.55272,-4.41032 -0.1575,-0.33028 -1.41487,-1.7839 -2.79418,-3.23027 -4.34188,-4.55299 -8.2856,-8.75976 -9.25783,-9.87538 -0.6225,-0.7143 -1.0806,-1.07655 -1.36341,-1.07813 -0.46901,-0.003 -3.33489,1.07676 -4.81805,1.81459 -1.88884,0.93966 -4.03729,2.19163 -4.03729,2.35267 0,0.53912 3.02636,3.94632 7.87114,8.86163 3.04937,3.09375 6.32917,6.55312 7.2885,7.6875 0.95932,1.13437 1.94105,2.29453 2.18162,2.57812 0.24058,0.2836 0.48615,0.51563 0.54572,0.51563 0.0596,0 0.30714,-0.31641 0.55014,-0.70313 z m 6.46046,-16.07973 c 0.0296,-0.30848 0.21475,-1.44683 0.41141,-2.52964 0.52812,-2.90766 0.99162,-6.96375 0.81435,-7.12656 -0.41092,-0.3774 -9.81256,0.72996 -10.33923,1.21782 -0.20136,0.1865 -0.13189,0.32435 0.375,0.74407 0.34218,0.28335 0.89748,0.86522 1.23401,1.29304 1.13276,1.44011 6.88434,7.06736 7.16938,7.01441 0.15984,-0.0297 0.30448,-0.29436 0.33508,-0.61314 z m 19.92962,-21.46993 c 0.55185,-0.10465 1.08103,-0.26794 1.17594,-0.36285 0.10512,-0.10512 -0.0746,-0.48889 -0.45956,-0.9816 -0.84049,-1.07564 -7.66279,-7.84026 -7.90712,-7.84026 -0.21423,0 -0.0863,8.81357 0.13309,9.16858 0.16491,0.26679 5.66951,0.27939 7.05765,0.0161 z m 12.01146,-3.85409 c 1.89343,-0.89349 3.54806,-1.70936 3.67697,-1.81305 0.1289,-0.10366 0.23437,-0.34518 0.23437,-0.53671 0,-0.20925 -3.74766,-4.10865 -9.38974,-9.76995 -5.16437,-5.18194 -9.52929,-9.65794 -9.69984,-9.94667 -0.60756,-1.0285 -0.83278,-0.66795 -2.57589,4.12338 -0.69407,1.90776 -0.83453,2.51802 -0.83453,3.6256 v 1.33174 l 1.16603,1.2494 c 0.6413,0.68715 2.75947,2.8947 4.70703,4.90564 1.94757,2.01094 4.60802,4.77114 5.9121,6.1338 2.05566,2.14794 2.43692,2.46714 2.866,2.39946 0.27219,-0.043 2.04407,-0.80914 3.9375,-1.70264 z m 11.3354,-5.67583 c 1.36077,-0.88517 5.39573,-4.44823 5.48393,-4.84256 0.0353,-0.15795 -0.18857,-0.51079 -0.49755,-0.78409 -0.30898,-0.2733 -2.03361,-2.05783 -3.83252,-3.96564 -3.70491,-3.92921 -15.34215,-15.49778 -17.78691,-17.68194 -0.88839,-0.79367 -1.70478,-1.44306 -1.81421,-1.44306 -0.23859,0 -2.69287,2.73007 -3.72823,4.14718 -1.2597,1.72419 -1.59883,2.37594 -1.46149,2.80871 0.0697,0.21949 2.92592,3.23717 6.34723,6.70596 3.42132,3.46879 7.45384,7.6569 8.96115,9.3069 1.50733,1.65 3.50078,3.78047 4.42988,4.73437 1.99592,2.04919 2.21854,2.10709 3.89872,1.01417 z"
       id="path1350"
       sodipodi:nodetypes="ssssscsssssssssccsssssssssscccsssssssssssssssssssssssssssssssssssssssssssssscscccssssscssssssssssssssssssssssssssssscsssssssssssssssss" />
    <path
       style="fill:#108bb4;stroke-width:0.1875"
       d="m 320.19272,311.83786 c -0.36919,-0.68985 -2.46276,-6.6951 -3.96971,-11.38691 -0.86121,-2.68125 -3.2047,-9.72656 -5.20776,-15.65625 -7.07252,-20.93679 -9.66112,-28.73186 -15.0371,-45.28125 -1.5156,-4.66562 -1.67166,-5.24706 -1.48814,-5.54402 0.129,-0.20872 1.28554,-0.25444 6.21593,-0.2457 5.14211,0.009 6.53387,0.0736 9.21034,0.42684 2.91603,0.38487 6.35128,1.02801 6.72525,1.25914 0.3719,0.22986 0.98358,1.82948 2.68655,7.02574 0.99418,3.03352 3.07435,9.18581 4.62259,13.67175 2.83179,8.20492 6.28305,18.55596 7.20754,21.61686 0.27377,0.90645 0.58423,1.61928 0.6899,1.58405 0.10566,-0.0352 0.94148,-1.78937 1.85738,-3.8981 0.91588,-2.10872 2.50084,-5.56375 3.52209,-7.67781 1.02128,-2.11406 1.88417,-4.0125 1.91755,-4.21875 0.0595,-0.36758 0.24249,-0.37686 9.2457,-0.46875 6.7661,-0.0691 9.32407,-0.15548 9.71295,-0.32814 0.65912,-0.29269 0.88548,-0.1737 2.114,1.1112 1.17707,1.23106 2.353,2.7062 6.17659,7.74819 1.64231,2.16562 3.67785,4.64651 4.52346,5.51308 l 1.53744,1.57558 0.9978,-0.82089 c 1.41825,-1.16681 4.23688,-3.82922 5.38958,-5.09087 0.79468,-0.86979 0.95523,-1.15399 0.84742,-1.5 -0.0731,-0.23481 -2.00173,-2.32534 -4.28574,-4.64565 -2.28402,-2.32031 -5.32791,-5.48438 -6.76423,-7.03125 -1.43631,-1.54688 -3.50085,-3.74063 -4.58785,-4.875 -1.08701,-1.13438 -2.32702,-2.46724 -2.75559,-2.96192 l -0.7792,-0.89944 0.68545,-0.43931 c 0.97959,-0.62784 2.69004,-2.33923 3.08132,-3.08302 0.33009,-0.62747 0.33725,-0.63023 0.72819,-0.28125 0.21714,0.19383 1.03416,1.154 1.81558,2.13369 0.78145,0.97969 3.66921,4.05937 6.41728,6.84375 5.65444,5.72914 6.41989,6.56674 9.3387,10.21875 0.28785,0.36017 0.44472,0.42531 0.67714,0.28125 0.16637,-0.10313 1.08444,-1.83281 2.04019,-3.84375 0.95574,-2.01094 1.97861,-4.03594 2.27302,-4.5 l 0.53533,-0.84375 0.23867,0.5625 c 0.13129,0.30937 0.20417,0.68906 0.16198,0.84375 -0.0422,0.15469 -0.1235,0.87187 -0.18071,1.59375 -0.0572,0.72187 -0.14987,1.67085 -0.20591,2.10883 -0.056,0.43796 -0.0357,0.90203 0.0452,1.03125 0.14859,0.23734 0.17051,0.33146 0.22218,0.95404 0.0251,0.30274 0.17519,0.33656 1.2477,0.28125 1.11554,-0.0575 1.219,-0.031 1.21748,0.31213 -0.002,0.54045 -1.75532,3.42816 -3.0447,5.01576 -2.04906,2.523 -2.48366,3.10286 -3.14192,4.1919 -0.36094,0.59716 -1.01484,1.54775 -1.45312,2.11245 -0.43829,0.56467 -0.79688,1.10793 -0.79688,1.20721 0,0.0993 -0.29422,0.43187 -0.65385,0.73904 -0.35961,0.30718 -0.61365,0.62349 -0.56456,0.70295 0.0491,0.0795 -0.0364,0.24872 -0.1899,0.37615 -0.15356,0.12744 -0.27919,0.34794 -0.27919,0.48999 0,0.14207 -0.13155,0.2583 -0.29231,0.2583 -0.16078,0 -0.24505,-0.0765 -0.18724,-0.17001 0.17944,-0.29034 -0.7266,0.0306 -0.95484,0.33822 -0.16532,0.22282 -0.15437,0.37811 0.0469,0.66543 0.1444,0.20614 0.26252,0.51574 0.26252,0.68802 0,0.17227 0.12784,0.36226 0.28406,0.42223 0.15625,0.0599 0.37032,0.33585 0.47573,0.61308 0.14565,0.38312 0.24397,0.45177 0.40969,0.28605 0.26696,-0.26696 0.89302,-0.28835 0.89302,-0.0305 0,0.10312 0.28742,0.1875 0.6387,0.1875 0.53559,0 0.62363,-0.0576 0.54536,-0.35693 -0.0904,-0.34556 0.25493,-0.56701 1.06594,-0.68364 0.64069,-0.0921 1.875,-0.72187 1.875,-0.95662 0,-0.34131 0.30853,-0.32149 0.4428,0.0284 0.0643,0.16749 0.34643,0.28125 0.69761,0.28125 h 0.58967 l -0.12806,-0.85401 -0.12806,-0.85398 0.99738,0.0571 c 0.87094,0.0499 1.005,0.11062 1.05734,0.479 0.0786,0.55324 0.29707,0.53504 0.5622,-0.0469 0.11746,-0.25781 0.29953,-0.46875 0.40456,-0.46875 0.26084,0 1.69206,-1.30939 1.69206,-1.54802 0,-0.10554 0.11269,-0.28556 0.25043,-0.40007 0.26606,-0.22115 1.24903,-2.47445 2.09476,-4.80191 0.28105,-0.77344 0.7543,-1.96142 1.05165,-2.63996 0.29736,-0.67853 0.54066,-1.36114 0.54066,-1.51692 0,-0.15577 0.24084,-0.78185 0.53522,-1.3913 0.29437,-0.60943 0.68711,-1.57213 0.87274,-2.13932 0.82642,-2.52497 1.37675,-4.00941 1.39008,-3.74957 0.0333,0.6489 -1.15468,4.93554 -2.87848,10.38651 -0.55775,1.76375 -1.57472,5.10525 -2.2599,7.42556 -0.68518,2.32031 -1.90811,6.24375 -2.71764,8.71875 -0.80953,2.475 -2.16741,6.77812 -3.01751,9.5625 -0.85009,2.78437 -1.95462,6.37031 -2.45451,7.96875 -0.49989,1.59844 -1.08763,3.53906 -1.30609,4.3125 -0.21845,0.77344 -0.46946,1.59609 -0.55779,1.82812 l -0.16058,0.42188 h -10.56871 c -9.82842,0 -10.58931,-0.023 -10.86276,-0.32813 -0.26475,-0.2954 -1.27712,-2.73151 -5.66859,-13.64062 -0.74723,-1.85625 -2.00254,-4.83039 -2.78955,-6.60921 -0.78702,-1.77881 -1.43093,-3.30832 -1.43093,-3.3989 0,-0.0906 -0.1308,-0.27328 -0.29066,-0.40596 -0.44258,-0.36729 -0.71711,0.036 -1.37591,2.02131 -0.31617,0.95272 -1.16095,3.18866 -1.87729,4.96875 -0.71636,1.78007 -1.99168,5.17713 -2.83405,7.54901 -0.84238,2.37187 -1.95046,5.45156 -2.4624,6.84375 -0.51195,1.39219 -0.96558,2.63672 -1.00811,2.76562 -0.0607,0.18392 -2.41839,0.23438 -10.95159,0.23438 -10.21084,0 -10.88513,-0.0203 -11.05189,-0.33184 z m 58.37306,-19.87129 c -0.16841,-1.3878 -0.56878,-3.33247 -0.74469,-3.61711 -0.0754,-0.12192 -0.21023,-0.78177 -0.29972,-1.46633 -0.26456,-2.02344 -0.38319,-2.54087 -0.65361,-2.85073 -0.1409,-0.16146 -0.31051,-0.56524 -0.37693,-0.89728 -0.10533,-0.52669 -0.5252,-0.96542 -0.92392,-0.96542 -0.1366,0 -0.041,0.62979 0.25624,1.6875 0.10143,0.36094 0.48275,1.79531 0.84742,3.1875 0.84679,3.23284 1.75067,6 1.9599,6 0.0364,0 0.007,-0.48516 -0.0647,-1.07813 z m 0.47884,-10.91081 c 0,-0.5678 -0.2805,-0.60457 -0.75544,-0.099 l -0.43492,0.46298 h 0.59518 c 0.46416,0 0.59518,-0.0801 0.59518,-0.36394 z m -4.6875,-0.82952 c 0,-0.3725 -0.732,-1.24404 -1.04486,-1.24404 -0.38245,0 -0.33049,0.43202 0.12097,1.00596 0.41554,0.5283 0.92389,0.65928 0.92389,0.23808 z m -18.07391,-22.86258 c -0.29496,-0.2157 -0.292,-0.258 0.0432,-0.6178 0.1979,-0.21244 0.4211,-0.5907 0.49599,-0.84058 0.3315,-1.10617 2.89813,-4.86058 3.32284,-4.86058 0.12262,0 -0.0275,0.27422 -0.3336,0.60937 -1.16385,1.27433 -1.85213,2.50979 -2.50579,4.49796 -0.46569,1.41643 -0.57135,1.54161 -1.02264,1.21163 z m -14.36359,-0.20637 c 0,-0.14432 0.27422,-0.68357 0.60938,-1.19829 0.33515,-0.51474 1.15781,-1.84386 1.82812,-2.95359 0.67031,-1.10972 1.75384,-2.74315 2.40786,-3.62982 1.18633,-1.60839 3.15084,-3.70968 3.31487,-3.54566 0.0476,0.0476 -0.41899,0.68709 -1.03684,1.4211 -0.61787,0.73403 -1.12339,1.37788 -1.12339,1.43079 0,0.0529 -0.18984,0.38905 -0.42187,0.74695 -0.23204,0.3579 -0.75938,1.21601 -1.17188,1.90691 -0.4125,0.6909 -1.02502,1.62703 -1.36116,2.08029 -0.58091,0.78334 -0.85426,1.56655 -1.07821,3.08922 -0.0903,0.61359 -0.1675,0.69041 -0.79902,0.79481 -1.01542,0.16787 -1.16786,0.14923 -1.16786,-0.14271 z m 58.88021,-5.84072 c 0.003,-0.30421 0.1576,-1.56759 0.34384,-2.80751 0.25764,-1.71517 0.30098,-2.60587 0.18116,-3.72403 -0.16931,-1.58017 -0.60127,-2.74033 -1.02032,-2.74033 -0.14295,0 -0.26094,-0.10547 -0.26221,-0.23438 -0.002,-0.1289 -0.27923,-0.41362 -0.61769,-0.63268 -0.69313,-0.44867 -2.01136,-0.47872 -3.52239,-0.0803 -0.71411,0.18829 -0.97524,0.17938 -1.52955,-0.0522 -0.62042,-0.25922 -0.69658,-0.25303 -1.06072,0.0862 -0.21578,0.20102 -0.39233,0.58408 -0.39233,0.85127 0,0.26717 -0.16584,1.12871 -0.36857,1.91456 -0.2027,0.78585 -0.41801,1.82425 -0.47846,2.30758 -0.0604,0.48332 -0.30979,1.17334 -0.55412,1.53338 -0.24433,0.36004 -0.47199,0.85052 -0.50591,1.08997 -0.0985,0.69561 -0.43783,0.40457 -0.42521,-0.36476 0.006,-0.38492 0.16591,-1.75455 0.35469,-3.04361 0.18877,-1.28906 0.43719,-3.01091 0.55204,-3.82635 l 0.2088,-1.4826 4.68648,-0.0375 c 2.57759,-0.0206 5.05369,-0.10391 5.50247,-0.18504 l 0.81595,-0.14751 -0.12795,1.66765 c -0.29286,3.8163 -0.6657,6.83073 -1.04119,8.41764 -0.42161,1.78191 -0.74775,2.43992 -0.73881,1.49062 z m -15.8672,-4.61285 c -0.29935,-0.2248 -0.86464,-0.71113 -1.25623,-1.08075 -0.77179,-0.72848 -0.63996,-0.71083 -3.99349,-0.5347 -0.97772,0.0513 -1.57579,0.36375 -1.57579,0.82313 0,0.45491 -0.26704,0.28414 -1.42851,-0.91358 -2.25005,-2.32025 -2.41623,-2.76562 -1.03188,-2.76562 0.50302,0 1.21751,-0.12656 1.58773,-0.28125 0.37022,-0.15469 0.91599,-0.28125 1.21282,-0.28125 0.29685,0 0.80382,-0.13176 1.12662,-0.29278 0.5661,-0.28241 0.61057,-0.27411 1.25662,0.23437 0.36836,0.28993 1.28794,1.24435 2.04349,2.12091 0.75555,0.87656 1.68962,1.95637 2.0757,2.39959 0.79693,0.91485 0.78909,1.17737 -0.0171,0.57193 z m -29.7937,-5.97244 c 0.17565,-0.28419 2.29043,-1.68658 2.54337,-1.68658 0.16368,0 0.16042,0.0727 -0.0127,0.28125 -0.12839,0.15469 -0.32856,0.28207 -0.44483,0.28307 -0.11629,0.002 -0.58189,0.2963 -1.03468,0.65625 -0.79734,0.63382 -1.28983,0.85215 -1.05118,0.46601 z m 4.40569,-2.88887 c 0,-0.30407 4.33329,-2.77145 6.46875,-3.6833 1.83816,-0.7849 2.78766,-1.12122 2.97069,-1.05225 0.11925,0.0449 0.0481,0.14145 -0.15819,0.2145 -1.95264,0.69153 -4.18686,1.78389 -6.15111,3.00738 -0.9081,0.56565 -1.75185,1.03114 -1.875,1.03442 -0.12313,0.003 -0.38767,0.12985 -0.58785,0.28125 -0.35041,0.26503 -0.66729,0.35906 -0.66729,0.198 z m 55.40625,-0.65752 c 0.20625,-0.0817 0.83906,-0.19693 1.40625,-0.25605 l 1.03125,-0.10752 -0.75,0.25354 c -0.82067,0.27741 -2.36413,0.37804 -1.6875,0.11003 z m 3.67187,-0.64506 c 0.043,-0.0371 0.33126,-0.12399 0.64063,-0.1932 0.41079,-0.0919 0.48666,-0.0745 0.28125,0.0645 -0.2532,0.17134 -1.11004,0.29096 -0.92188,0.1287 z m -27.06868,-8.23796 c -0.0508,-0.13238 -0.022,-0.91236 0.064,-1.73331 0.086,-0.82093 0.1729,-2.2098 0.19313,-3.08636 l 0.0368,-1.59375 0.17929,1.85299 c 0.16013,1.65508 0.23239,1.89977 0.67645,2.29095 0.57836,0.50947 1.01268,0.56407 1.34092,0.16856 0.12838,-0.15469 0.33932,-0.28125 0.46875,-0.28125 0.12943,0 0.33139,-0.11574 0.4488,-0.25721 0.11739,-0.14145 0.58254,-0.2988 1.03365,-0.34965 0.52523,-0.0592 1.08047,-0.29595 1.54388,-0.65833 0.39802,-0.31124 0.9768,-0.62421 1.28617,-0.6955 0.65949,-0.15197 1.4037,-0.79099 1.41221,-1.21262 0.003,-0.16248 0.12985,-0.45922 0.28125,-0.6594 0.15141,-0.20019 0.27529,-0.47902 0.27529,-0.61967 0,-0.24566 0.57566,-1.6775 0.93711,-2.33077 0.51333,-0.92786 0.69508,-5.97969 0.25316,-7.03734 -0.40755,-0.97544 -0.32854,-4.46504 0.12223,-5.39826 0.19926,-0.4125 0.36514,-0.85714 0.36864,-0.98811 0.004,-0.13095 0.2173,-0.57225 0.47511,-0.98064 0.25781,-0.40839 0.46875,-0.87542 0.46875,-1.03781 0,-0.35481 1.44388,-2.52469 1.67998,-2.52469 0.22678,0 2.07002,-1.69155 2.07002,-1.89966 0,-0.0918 0.18278,-0.55575 0.40614,-1.03098 0.3145,-0.66904 0.3597,-0.93842 0.20033,-1.19361 -0.32479,-0.52009 -0.48013,-1.62833 -0.24831,-1.77159 0.11239,-0.0695 0.20434,-0.25594 0.20434,-0.4144 0,-0.15847 0.15435,-0.51208 0.34299,-0.78581 0.46624,-0.67652 1.19719,-2.54933 1.12326,-2.87796 -0.033,-0.14666 0.25641,-0.5447 0.64313,-0.88451 0.58648,-0.51534 0.70312,-0.73901 0.70312,-1.34841 0,-0.60556 0.0642,-0.73057 0.375,-0.73057 0.54234,0 0.50207,-0.70579 -0.0447,-0.78383 -0.39962,-0.0571 -0.41679,-0.12956 -0.35844,-1.51305 0.0421,-0.99873 -0.006,-1.45312 -0.15253,-1.45312 -0.11758,0 -0.2991,-0.24469 -0.40335,-0.54375 -0.16069,-0.46093 -0.28993,-0.54375 -0.8487,-0.54375 -0.74749,0 -1.1799,0.19425 -2.34386,1.05291 -0.44942,0.33153 -1.33394,0.98043 -1.9656,1.44198 -1.0821,0.79073 -3.25778,3.1128 -3.25778,3.47702 0,0.35098 -1.96125,3.0373 -2.53954,3.47837 -0.42528,0.32439 -0.6723,0.72319 -0.82601,1.33361 -0.1206,0.47895 -0.38657,1.10577 -0.59106,1.39294 -0.20446,0.28716 -0.54037,1.05251 -0.74645,1.70076 -0.20608,0.64826 -0.45413,1.34741 -0.55121,1.55366 -0.0971,0.20625 -0.25497,0.7125 -0.35084,1.125 -0.0959,0.4125 -0.26203,1.00312 -0.36922,1.3125 -0.10721,0.30937 -0.33542,1.06875 -0.50715,1.6875 -0.17171,0.61875 -0.50441,1.58906 -0.73935,2.15625 -0.40787,0.98473 -0.81242,2.55795 -0.91611,3.5625 -0.0266,0.25781 -0.0947,0.59531 -0.15123,0.75 -0.0566,0.15469 -0.25424,1.10361 -0.43926,2.1087 -0.18503,1.00511 -0.36814,1.79572 -0.40691,1.75695 -0.16587,-0.16586 0.46655,-3.93388 1.34113,-7.99065 0.90834,-4.21341 2.45272,-8.41888 4.40675,-12 0.0844,-0.15469 0.27966,-0.57827 0.43388,-0.94131 0.92559,-2.17856 4.77244,-7.08866 7.84963,-10.01917 1.72714,-1.64481 6.03855,-4.97702 6.43958,-4.97702 0.5682,0 5.72079,5.80251 6.7775,7.63236 0.54683,0.94693 1.80426,2.34511 5.0193,5.58118 2.35933,2.37474 4.97023,5.07708 5.80202,6.00521 2.13066,2.37742 7.60952,8.30096 9.48911,10.25925 1.6078,1.67512 1.78213,2.08856 0.46294,1.09781 -0.93911,-0.70532 -4.89317,-4.57835 -5.61564,-5.50061 -0.59695,-0.76202 -2.64017,-2.36987 -4.05525,-3.19114 -0.97523,-0.56599 -1.57155,-0.63058 -2.1036,-0.22785 -0.19566,0.14811 -0.43675,0.21923 -0.53573,0.15805 -0.11109,-0.0687 -0.12193,0.0592 -0.0283,0.33414 0.0834,0.24493 0.13206,0.76899 0.10811,1.16454 -0.0239,0.39557 0.0857,0.97828 0.2437,1.2949 l 0.28719,0.5757 -0.42212,-0.35614 c -1.3368,-1.12791 -2.5176,-2.22334 -6.23376,-5.78308 -2.2683,-2.17281 -4.7712,-4.56986 -5.56203,-5.3268 -0.79082,-0.75692 -1.55721,-1.34755 -1.7031,-1.3125 -0.30846,0.0741 -2.292,2.31174 -3.52482,3.97635 -1.30256,1.75879 -1.71954,2.55911 -1.59397,3.05942 0.0607,0.24195 2.70716,3.07533 5.88099,6.29643 3.17382,3.22109 6.91828,7.16434 8.32105,8.76278 1.40276,1.59844 3.27588,3.70781 4.16252,4.6875 1.64364,1.81618 2.18,2.68131 0.90915,1.46647 -0.38672,-0.36969 -1.29375,-1.03479 -2.01563,-1.47804 -1.23114,-0.75594 -2.89596,-2.03702 -4.40625,-3.39062 -0.36094,-0.32349 -0.843,-0.65679 -1.07124,-0.74064 -0.36617,-0.13455 -0.42902,-0.0777 -0.53427,0.48334 -0.0843,0.44945 -0.0114,0.84538 0.24848,1.35078 0.20227,0.39323 0.52018,1.20156 0.70644,1.79631 0.18628,0.59475 0.45105,1.17461 0.5884,1.28859 0.28697,0.23817 0.33738,0.59818 0.0707,0.50505 -0.0984,-0.0344 -2.2289,-2.08128 -4.73437,-4.54869 -2.50545,-2.46743 -5.85055,-5.75805 -7.43353,-7.3125 -1.58297,-1.55447 -3.12688,-3.18489 -3.43088,-3.62318 -0.64232,-0.926 -0.97412,-1.00078 -1.24802,-0.28125 -2.05633,5.40167 -2.34343,6.34442 -2.36184,7.7554 l -0.0186,1.42727 1.8671,2.04148 c 1.0269,1.1228 2.84378,3.05398 4.03748,4.29148 1.19372,1.2375 2.89279,3.09375 3.77572,4.125 1.45082,1.69453 2.0656,2.30647 3.6118,3.59518 0.48264,0.40226 0.64582,0.81107 0.32373,0.81107 -0.0909,0 -0.99798,-0.80878 -2.01562,-1.79728 -1.01762,-0.98852 -2.14553,-1.95441 -2.50646,-2.14643 -0.36094,-0.19202 -1.33125,-0.9888 -2.15625,-1.7706 -1.48729,-1.40943 -1.51168,-1.42325 -2.87927,-1.62933 -1.13873,-0.17162 -1.40816,-0.16249 -1.54491,0.0523 -0.0911,0.14306 -0.11319,0.38668 -0.0491,0.54137 0.22482,0.54247 0.4927,2.07433 0.38209,2.18492 -0.17379,0.17381 -1.26722,-0.79622 -2.10703,-1.86923 -0.54636,-0.69808 -0.88976,-0.97194 -1.21875,-0.97194 h -0.45804 l 0.0937,3.09375 c 0.0516,1.70156 0.0937,3.81094 0.0937,4.6875 v 1.59375 l -5.25,0.0937 c -2.8875,0.0516 -5.34662,0.15654 -5.46473,0.23331 -0.1181,0.0767 -0.25629,0.0312 -0.30709,-0.10114 z m 26.87225,-2.08845 c 0.27599,-0.27019 4.61502,-2.16872 4.95653,-2.16872 0.32077,0 -0.67419,0.61044 -2.50568,1.53729 -1.75363,0.88746 -3.0548,1.22269 -2.45085,0.63143 z m 25.0278,-1.91273 c 2.64794,-2.59772 4.80227,-4.97902 5.64882,-6.2439 0.45305,-0.67697 1.03552,-1.52115 1.29437,-1.87595 1.01469,-1.39092 0.89017,-1.92298 -0.9685,-4.13826 -1.64915,-1.96558 -2.3154,-2.5113 -3.35293,-2.74633 -0.71578,-0.16217 -0.75262,-0.20599 -0.80766,-0.96073 -0.0436,-0.59786 0.01,-0.79082 0.21876,-0.79082 0.15203,0 0.30574,0.088 0.34159,0.19554 0.0359,0.10755 1.47725,1.6102 3.20312,3.33925 1.72586,1.72903 3.13717,3.22307 3.13623,3.32008 -0.002,0.24812 -2.01405,2.98507 -4.14991,5.64622 -1.58768,1.97813 -5.17469,5.45042 -5.8482,5.66115 -0.12042,0.0377 0.45753,-0.59512 1.28431,-1.40625 z m -51.63766,-3.44349 c -0.008,-0.60353 0.0391,-0.75911 0.16342,-0.54649 0.10251,0.17528 0.10678,0.52148 0.0103,0.84375 -0.15088,0.50453 -0.16423,0.48169 -0.17383,-0.29726 z m 40.29067,-1.125 c 0.3672,-0.2373 0.61541,-0.2373 0.46875,0 -0.0637,0.10312 -0.25856,0.18621 -0.43294,0.18463 -0.27324,-0.002 -0.27819,-0.028 -0.0358,-0.18463 z m -40.08846,-1.21875 c 0.004,-0.30938 0.0458,-0.41323 0.0934,-0.23081 0.0475,0.18243 0.0444,0.43556 -0.007,0.5625 -0.0514,0.12695 -0.0902,-0.0223 -0.0864,-0.33169 z m 43.36971,-1.12776 c 1.12039,-1.01522 1.40625,-1.18826 1.40625,-0.85128 0,0.23505 -2.03595,1.88733 -2.31407,1.87798 -0.11945,-0.004 0.28907,-0.46603 0.90782,-1.0267 z M 409.60712,185.0447 c 0,-0.10313 0.12656,-0.1875 0.28125,-0.1875 0.15469,0 0.28125,0.0844 0.28125,0.1875 0,0.10312 -0.12656,0.1875 -0.28125,0.1875 -0.15469,0 -0.28125,-0.0844 -0.28125,-0.1875 z"
       id="path1348"
       sodipodi:nodetypes="csssscsssssssssssssscssssssscssssssssscssssssscssssssssssssssssssssssscccssssssssssssssssssscssssssssssssccssssssssssssscssssssssssssssssssssssssssssssscssssssssscsscsscssssssssssssssssssssscsssssssscsssscssssssssscsssssssscssssscsssssssssssssssssssssssssssssssssssscsssssssssssssscssssssssssssssssssssscscssssssssssssssccsccsssssssssssssssscssscscccsscssccscsssssssss" />
    <path
       style="fill:#18729b;stroke-width:0.1875"
       d="m 320.19272,311.83786 c -0.36919,-0.68985 -2.46276,-6.6951 -3.96971,-11.38691 -0.86121,-2.68125 -3.2047,-9.72656 -5.20776,-15.65625 -7.07252,-20.93679 -9.66112,-28.73186 -15.0371,-45.28125 -1.5156,-4.66562 -1.67166,-5.24706 -1.48814,-5.54402 0.129,-0.20872 1.28554,-0.25444 6.21593,-0.2457 5.14211,0.009 6.53387,0.0736 9.21034,0.42684 2.91603,0.38487 6.35128,1.02801 6.72525,1.25914 0.3719,0.22986 0.98358,1.82948 2.68655,7.02574 0.99418,3.03352 3.07435,9.18581 4.62259,13.67175 2.83179,8.20492 6.28305,18.55596 7.20754,21.61686 0.27377,0.90645 0.58423,1.61928 0.6899,1.58405 0.10566,-0.0352 0.94148,-1.78937 1.85738,-3.8981 0.91588,-2.10872 2.50084,-5.56375 3.52209,-7.67781 1.02128,-2.11406 1.88417,-4.0125 1.91755,-4.21875 0.0595,-0.36758 0.24249,-0.37686 9.2457,-0.46875 6.7661,-0.0691 9.32407,-0.15548 9.71295,-0.32814 0.65912,-0.29269 0.88548,-0.1737 2.114,1.1112 1.18077,1.23493 2.36539,2.7216 6.174,7.74819 1.64089,2.16562 3.76617,4.73906 4.72285,5.71875 2.00242,2.05057 2.39484,2.57044 3.39682,4.5 0.81364,1.56684 1.1112,2.42241 2.44543,7.03125 3.96087,13.68195 5.01593,17.1489 5.30687,17.43847 0.069,0.0686 0.12928,-0.36755 0.13403,-0.96933 0.005,-0.60178 0.0847,-1.49278 0.17763,-1.98002 0.093,-0.48724 0.13095,-1.08503 0.0844,-1.32844 -0.0609,-0.31869 0.0773,-0.59533 0.49385,-0.9885 0.31813,-0.30028 0.57844,-0.63454 0.57844,-0.74282 0,-0.23634 0.46451,-0.8807 1.18403,-1.64248 0.29026,-0.30733 0.66223,-0.90542 0.82655,-1.32907 0.16433,-0.42368 0.36227,-0.85469 0.43986,-0.95781 0.40327,-0.53593 1.44482,-2.74193 1.55522,-3.29391 0.0698,-0.34903 0.27937,-0.97412 0.46569,-1.38909 0.18634,-0.41498 0.61622,-1.38731 0.95531,-2.16075 0.3391,-0.77344 0.72942,-1.65938 0.86736,-1.96875 0.58252,-1.30639 3.08098,-7.78967 3.08098,-7.99487 0,-0.12313 0.0457,-0.17814 0.10163,-0.12227 0.13875,0.13877 -0.67823,3.35646 -1.48967,5.86714 -0.97965,3.03109 -2.84652,8.98254 -3.79362,12.09375 -0.79177,2.60094 -1.55771,5.06706 -3.23208,10.40625 -0.42042,1.34062 -0.82058,2.73281 -0.88924,3.09375 -0.27311,1.43565 0.76076,1.3125 -11.01831,1.3125 -9.8183,0 -10.57869,-0.023 -10.85214,-0.32813 -0.26475,-0.2954 -1.27712,-2.73151 -5.66859,-13.64062 -0.74723,-1.85625 -2.00254,-4.83039 -2.78955,-6.60921 -0.78702,-1.77881 -1.43093,-3.30832 -1.43093,-3.3989 0,-0.0906 -0.1308,-0.27328 -0.29066,-0.40596 -0.44258,-0.36729 -0.71711,0.036 -1.37591,2.02131 -0.31617,0.95272 -1.16095,3.18866 -1.87729,4.96875 -0.71636,1.78007 -1.99168,5.17713 -2.83405,7.54901 -0.84238,2.37187 -1.95046,5.45156 -2.4624,6.84375 -0.51195,1.39219 -0.96558,2.63672 -1.00811,2.76562 -0.0607,0.18392 -2.41839,0.23438 -10.95159,0.23438 -10.21084,0 -10.88513,-0.0203 -11.05189,-0.33184 z m 54.29747,-32.29316 c -0.53213,-0.51563 -1.03288,-0.9375 -1.11279,-0.9375 -0.44575,0 0.0129,-0.64809 1.20821,-1.70708 0.74441,-0.65955 2.28425,-2.10007 3.42187,-3.20116 l 2.06839,-2.002 0.0583,0.85733 c 0.0387,0.57 -0.0767,1.17101 -0.34438,1.7933 l -0.40266,0.936 0.39127,0.5292 c 0.48059,0.65005 0.48254,0.759 0.0291,1.63 -0.40805,0.78384 -0.9833,1.35257 -2.379,2.35203 -1.30982,0.93795 -1.75095,0.9004 -2.93829,-0.25012 z m 19.19548,-1.59375 c 0.0195,-0.35516 0.33203,-0.95321 0.3429,-0.65625 0.006,0.15469 -0.0715,0.40781 -0.17145,0.5625 -0.1,0.15469 -0.17711,0.19687 -0.17145,0.0937 z m -14.16497,-7.13741 c -0.30534,-0.40568 -1.7603,-1.9545 -3.23325,-3.44183 -1.47294,-1.48734 -2.63606,-2.74627 -2.5847,-2.79765 0.0514,-0.0514 0.24071,0.0428 0.42075,0.20921 1.73925,1.60761 2.88256,2.57393 3.04541,2.57393 0.10794,0 0.28813,0.20167 0.40044,0.44814 0.11231,0.24649 0.40328,0.5547 0.6466,0.68492 0.24331,0.13024 0.67256,0.58247 0.95386,1.00498 0.28133,0.42252 0.62813,0.86683 0.77069,0.98738 0.14255,0.12054 0.23133,0.41027 0.19728,0.64384 -0.057,0.39082 -0.10618,0.36588 -0.61708,-0.31292 z m 2.45653,-4.67402 c -0.0591,-0.15409 -0.36575,-0.43721 -0.68135,-0.62916 -0.31562,-0.19192 -0.89526,-0.77974 -1.28807,-1.30624 -1.24853,-1.6734 -6.86882,-7.55876 -7.80265,-8.17061 -0.28291,-0.18538 -1.36993,-1.14422 -2.4156,-2.13077 -3.6867,-3.47827 -4.15779,-3.90864 -4.8524,-4.43289 -0.39019,-0.29449 -0.8268,-0.48105 -0.98438,-0.42058 -0.36842,0.14137 -0.36583,0.12834 0.19545,-0.98916 0.26325,-0.5241 0.59918,-0.95291 0.7465,-0.95291 0.14733,0 0.91562,0.82266 1.7073,1.82812 0.79168,1.00547 3.68613,4.10625 6.43213,6.89063 5.8224,5.90377 9.9021,10.59375 9.21527,10.59375 -0.0906,0 -0.21308,-0.12608 -0.2722,-0.28018 z m 2.31739,-0.97451 c 0,-0.28379 2.61645,-5.6554 2.81423,-5.77763 0.31711,-0.19599 -0.24854,1.32692 -1.24604,3.35469 -0.97113,1.97417 -1.56819,2.89665 -1.56819,2.42294 z m -13.88171,-3.83864 c -0.21471,-0.41865 -0.20968,-0.42367 0.11428,-0.11426 0.18637,0.17801 0.28744,0.37508 0.22459,0.43793 -0.0628,0.0628 -0.21535,-0.0828 -0.33887,-0.32367 z m -0.76721,-0.8598 c -0.23322,-0.29739 -0.2266,-0.30401 0.0708,-0.0708 0.18046,0.14155 0.32812,0.2892 0.32812,0.32813 0,0.15433 -0.15397,0.055 -0.39892,-0.25733 z m -2.88233,-3.04687 c -0.0637,-0.10313 -0.0265,-0.1875 0.0827,-0.1875 0.1092,0 0.19856,0.0844 0.19856,0.1875 0,0.10312 -0.0372,0.1875 -0.0827,0.1875 -0.0455,0 -0.13483,-0.0844 -0.19856,-0.1875 z m -24.73342,-0.16069 c -0.15786,-0.25541 0.0552,-0.72827 0.38527,-0.85492 0.21163,-0.0812 0.26477,0.0137 0.21986,0.39292 -0.0611,0.51555 -0.40822,0.78062 -0.60513,0.462 z m 21.28408,-3.5213 c -1.25329,-1.31114 -2.25049,-2.46854 -2.21599,-2.572 0.0345,-0.10348 0.36804,-0.38137 0.74124,-0.61757 l 0.67855,-0.42943 -0.0694,0.93175 c -0.0472,0.63433 0.002,0.93215 0.15403,0.93301 0.12285,0 0.41522,0.28305 0.64969,0.62745 0.23447,0.34439 0.66214,0.89031 0.9504,1.21319 0.28824,0.32285 0.64485,0.82098 0.79245,1.10692 0.1476,0.28596 0.39478,0.61849 0.5493,0.73896 0.15454,0.12048 0.22864,0.27137 0.16468,0.33532 -0.0639,0.064 -1.14169,-0.95647 -2.39497,-2.2676 z m 12.87122,-9.39387 c -1.29585,-1.30781 -1.52444,-1.73664 -0.92571,-1.73664 0.54667,0 2.36233,2.20202 2.25111,2.73013 -0.0399,0.18956 -0.48014,-0.1404 -1.3254,-0.99349 z m 6.70312,0.16821 c -0.70594,-0.4314 -3.08023,-2.79338 -2.94444,-2.92916 0.24024,-0.24023 0.74147,-0.0527 1.3671,0.51148 0.79773,0.71936 2.42531,2.76487 2.19778,2.76214 -0.0319,0 -0.31106,-0.1554 -0.62044,-0.34446 z m 18.1512,-16.65051 c -0.13974,-0.0568 -0.0156,-0.28012 0.33083,-0.59456 0.51661,-0.46903 0.56343,-0.62559 0.68315,-2.28478 0.11078,-1.53512 0.14777,-1.67762 0.26775,-1.03125 0.0766,0.4125 0.14408,1.48828 0.15002,2.39062 l 0.0109,1.64063 -0.60938,-0.0148 c -0.33516,-0.008 -0.71008,-0.0558 -0.83317,-0.10587 z m 6.7863,-10.94186 c -0.94187,-0.68713 -1.54558,-0.80169 -3.15726,-0.59916 -1.20286,0.15117 -1.29121,0.13699 -1.42734,-0.22921 -0.0798,-0.21469 -0.20439,-1.87345 -0.27688,-3.6861 -0.12015,-3.00467 -0.0966,-3.43356 0.26661,-4.85609 0.38685,-1.51518 1.47393,-3.96416 1.4921,-3.3614 0.01,0.31927 -0.94117,3.05501 -1.28512,3.69769 -0.11323,0.21155 -0.20586,1.01876 -0.20586,1.79379 v 1.40914 l 2.39063,2.65869 c 3.54993,3.94798 3.84159,4.368 2.20312,3.17265 z m 43.59375,-2.31489 c 0,-0.68815 0.0564,-0.83918 0.28125,-0.75289 0.15636,0.06 0.28125,0.33861 0.28125,0.62739 0,0.28573 -0.12656,0.62453 -0.28125,0.75291 -0.24306,0.20171 -0.28125,0.11651 -0.28125,-0.62741 z m -34.5,-2.31681 c -0.56719,-0.56921 -2.29639,-2.22791 -3.84264,-3.68599 -3.60546,-3.3998 -6.14425,-6.08368 -6.4476,-6.81605 -0.21503,-0.51913 -0.19279,-0.65059 0.22106,-1.30615 0.25307,-0.40089 0.98604,-1.73857 1.62883,-2.97262 1.94014,-3.72482 3.13704,-5.43707 4.8252,-6.90281 0.97168,-0.84364 0.71648,-0.20205 -0.38576,0.96988 -0.55052,0.58532 -1.28323,1.48608 -1.62825,2.00171 -0.34504,0.51562 -0.67915,0.97969 -0.74246,1.03125 -0.0633,0.0516 -0.33825,0.48019 -0.61097,0.9525 l -0.49585,0.85873 0.35785,0.58843 c 0.1968,0.32363 2.83192,3.10125 5.85581,6.1725 5.2356,5.31761 8.57728,9.0118 8.57728,9.48208 0,0.1189 -0.53214,-0.31125 -1.18256,-0.95587 -1.2295,-1.21858 -2.17043,-1.92341 -4.28766,-3.21182 -1.61548,-0.98308 -1.98506,-0.9891 -2.63162,-0.043 -0.46038,0.67369 0.0445,2.24635 1.19907,3.73455 0.5,0.64454 0.84438,1.16415 0.76531,1.15472 -0.0791,-0.009 -0.60785,-0.48285 -1.17504,-1.05206 z m 28.5,-4.47309 c 0,-0.16078 0.0857,-0.23933 0.19056,-0.17455 0.10481,0.0648 0.14201,0.19632 0.0827,0.29232 -0.16072,0.26006 -0.27324,0.21157 -0.27324,-0.11777 z m -13.6875,-9.30049 c -0.67031,-0.62899 -2.12929,-1.99704 -3.24216,-3.04013 -2.46866,-2.31384 -3.67908,-3.11707 -4.69723,-3.11707 -0.48298,0 -0.8241,-0.11338 -0.98711,-0.32813 -0.22809,-0.30048 -0.24958,-0.28822 -0.25504,0.14579 -0.003,0.26064 -0.14073,0.66631 -0.30545,0.9015 -0.23417,0.33433 -0.2568,0.53767 -0.10377,0.93234 0.10765,0.27761 0.2308,0.80368 0.27366,1.16904 0.0428,0.36537 0.19181,0.84668 0.33103,1.0696 0.63619,1.01868 -0.18598,0.47707 -2.3849,-1.57108 -4.12731,-3.84434 -5.21901,-4.91657 -5.11341,-5.02217 0.0564,-0.0564 0.56106,-0.16733 1.12155,-0.24657 1.00729,-0.1424 1.02493,-0.15601 1.52379,-1.17532 0.75225,-1.53705 0.6919,-2.27882 -0.35162,-4.32041 -0.60577,-1.18519 -1.3347,-2.22098 -2.35016,-3.33945 -1.59124,-1.75272 -2.3975,-2.22312 -3.25292,-1.8979 -0.26437,0.10052 -0.58065,0.17929 -0.70284,0.17507 -0.29888,-0.0103 1.35349,-1.49231 1.66389,-1.49231 0.22245,0 1.44433,1.26934 4.82119,5.00842 0.67164,0.7437 1.53572,1.91464 1.92017,2.60211 0.54156,0.96838 1.78686,2.3532 5.52851,6.14783 2.65624,2.69385 5.2828,5.43928 5.8368,6.10098 0.55399,0.66171 1.24545,1.48437 1.53655,1.82813 0.29109,0.34376 0.50203,0.6224 0.46875,0.61918 -0.0333,-0.003 -0.60897,-0.52048 -1.27928,-1.14945 z"
       id="path1346"
       sodipodi:nodetypes="ssssscssssssssssssssssscsssssssssssscsssssssssssssssssssssscsscsssssscssssssssssssssssssssssssssssssssssssssssssssssssssscscsssssssssssssscsscsscccssssssscsscssssssssssssssssscssssssscssssssssssscsssssssssssssssssscs" />
    <path
       style="fill:#01394c;stroke-width:0.1875"
       d="m 319.28033,308.84309 c -0.61671,-1.72818 -1.9842,-5.79995 -3.03889,-9.04839 -1.88042,-5.79169 -4.73258,-14.30783 -7.59833,-22.6875 -4.14579,-12.12261 -13.866,-41.71821 -14.00977,-42.65625 -0.0542,-0.35376 0.086,-0.38278 2.47378,-0.51246 5.77839,-0.31378 12.64217,0.17299 18,1.27654 1.92148,0.39578 1.55856,-0.34417 5.05101,10.29842 1.01523,3.09375 2.87233,8.57812 4.12687,12.1875 3.06985,8.83213 6.04943,17.84565 6.57484,19.88946 0.4884,1.89984 0.78424,2.38395 1.19023,1.9476 0.14049,-0.15102 0.51956,-0.92114 0.84238,-1.71137 1.08302,-2.6512 3.7194,-8.47603 5.06691,-11.19478 0.73438,-1.48176 1.33526,-2.85285 1.33526,-3.04688 0,-0.34027 0.31399,-0.35308 8.85938,-0.36101 7.22632,-0.007 8.99761,-0.058 9.60937,-0.27842 0.4125,-0.14861 0.81304,-0.27148 0.89008,-0.27302 0.54482,-0.0111 2.5546,2.37428 7.95953,9.44657 1.72575,2.25812 3.73612,4.74718 4.4675,5.53125 1.71366,1.83711 2.71808,3.30876 3.53241,5.1756 0.67933,1.55741 2.32607,6.84838 4.14332,13.3125 0.5798,2.0625 1.21267,4.29844 1.40632,4.96875 0.19367,0.67031 0.61692,2.23125 0.94054,3.46875 0.73404,2.80684 1.07216,3.93176 1.45119,4.82812 0.29661,0.70148 0.68702,0.91275 0.86618,0.46875 0.13716,-0.33991 0.13969,0.58439 0.004,1.40625 l -0.11623,0.70313 h -10.54626 c -8.20914,0 -10.589,-0.0519 -10.73914,-0.23438 -0.10608,-0.1289 -1.26451,-2.89218 -2.5743,-6.14062 -6.10128,-15.13209 -7.38682,-18.07322 -7.93488,-18.15381 -0.32852,-0.0483 -0.47993,0.10684 -0.77419,0.79335 -0.20119,0.46935 -0.46149,1.21358 -0.57844,1.65379 -0.11696,0.44023 -0.84759,2.36136 -1.62362,4.26917 -0.77604,1.90781 -1.83047,4.65 -2.34317,6.09375 -0.51268,1.44375 -1.26123,3.55312 -1.66344,4.6875 -0.40221,1.13437 -1.13554,3.15937 -1.6296,4.5 l -0.89831,2.4375 -10.80056,0.0484 -10.80055,0.0484 -1.12127,-3.14213 z m 64.6532,-0.6467 c 0.008,-0.13498 0.17833,-0.58294 0.37932,-0.99544 0.20098,-0.4125 0.31537,-0.58125 0.25421,-0.375 -0.0612,0.20625 -0.15838,0.60879 -0.21604,0.89452 -0.10772,0.53384 -0.44239,0.91532 -0.41749,0.47592 z m 0.93838,-2.69856 c 0.009,-0.21844 0.0534,-0.26286 0.11329,-0.11329 0.0542,0.13536 0.0475,0.29708 -0.0148,0.35938 -0.0623,0.0623 -0.10663,-0.0485 -0.0985,-0.24609 z m 19.6255,-91.98405 c -0.28341,-0.20646 -0.51529,-0.51435 -0.51529,-0.68424 0,-0.22622 0.16052,-0.14837 0.59976,0.29088 0.70344,0.70343 0.65443,0.93162 -0.0845,0.39336 z m 13.31957,-7.04306 c -0.98003,-0.80151 -2.13876,-1.66821 -2.57494,-1.92602 -0.43618,-0.25781 -1.17154,-0.78611 -1.63408,-1.17399 -1.63973,-1.375 -3.73067,-2.90162 -4.53806,-3.31332 -0.80747,-0.41173 -0.81683,-0.42763 -0.69615,-1.18226 0.14186,-0.8871 0.66676,-1.86469 0.96054,-1.78892 0.28492,0.0735 10.46306,10.64327 10.35396,10.75236 -0.0492,0.0492 -0.89125,-0.56636 -1.87127,-1.36785 z m -8.80611,-2.25415 c -1.59632,-1.629 -2.23496,-2.52815 -1.97812,-2.78499 0.16678,-0.1668 1.07437,0.29629 1.07437,0.54818 0,0.14124 0.17269,0.4131 0.38376,0.6041 0.21105,0.19103 0.50658,0.60488 0.65673,0.91969 0.15014,0.31483 0.54698,0.873 0.88187,1.24042 0.94615,1.03802 1.13766,1.30073 0.94819,1.30073 -0.0965,0 -0.98151,-0.82266 -1.9668,-1.82813 z m 13.14379,-15.375 c -1.25402,-1.3491 -1.36961,-1.63218 -0.21296,-0.52149 0.64098,0.61553 1.16542,1.14287 1.16542,1.17188 0,0.21658 -0.40132,-0.0575 -0.95246,-0.65039 z m -3.20207,-3.9375 c -0.36409,-0.43415 -0.90797,-1.31441 -0.90797,-1.46949 0,-0.28067 0.61573,0.41689 0.95501,1.08195 0.39703,0.77824 0.38232,0.89955 -0.047,0.38754 z"
       id="path1344"
       sodipodi:nodetypes="csssssssssssscscssssssssccssssssssssccccccssscsssssssssssssssssssssssssssssssssss" />
    <path
       style="fill:#022637;stroke-width:0.1875"
       d="m 333.57587,311.80098 c -6.17244,-0.0823 -7.01876,-0.12257 -4.78125,-0.22734 1.49531,-0.07 2.92969,-0.121 3.1875,-0.11329 2.01377,0.0602 5.58726,-0.1239 6.72818,-0.34658 1.52701,-0.29801 1.85221,-0.43166 2.29293,-0.94233 0.75282,-0.87229 2.24772,-4.29782 2.60552,-5.97049 0.0882,-0.4125 0.46146,-1.52728 0.82939,-2.47731 0.36795,-0.95002 0.66898,-1.85418 0.66898,-2.00927 0,-0.15506 0.12371,-0.55903 0.27491,-0.89769 0.1512,-0.33864 0.91596,-2.30323 1.69945,-4.36573 1.51503,-3.9882 2.68374,-6.39598 3.43685,-7.08062 0.42972,-0.39064 0.45141,-0.39367 0.31645,-0.0444 -0.0797,0.20625 -0.4636,1.3476 -0.85315,2.53633 -0.38955,1.18875 -1.27652,3.55125 -1.97105,5.25 -0.69452,1.69877 -1.67847,4.26992 -2.18653,5.71367 -0.50807,1.44375 -1.2109,3.42656 -1.56182,4.40625 -0.35093,0.97969 -0.98196,2.75156 -1.40232,3.9375 -0.92718,2.61591 -0.98023,2.71712 -1.42818,2.72503 -0.19573,0.003 -3.73086,-0.0387 -7.85586,-0.0937 z m 28.47008,-0.3069 c -0.14224,-0.21707 -0.75175,-1.65152 -1.35449,-3.18765 -0.60271,-1.53615 -1.6229,-4.05861 -2.26708,-5.60548 -0.64417,-1.54688 -1.65723,-4.03594 -2.25125,-5.53125 -0.594,-1.49531 -1.4779,-3.60469 -1.9642,-4.6875 -0.4863,-1.08281 -1.12233,-2.60156 -1.41343,-3.375 -0.29107,-0.77344 -0.59149,-1.56266 -0.66759,-1.75384 -0.20254,-0.50884 1.66367,0.86813 1.92086,1.41731 0.36038,0.76941 2.23001,4.69394 3.19738,6.71153 0.54508,1.13683 0.99962,2.38269 1.07565,2.94834 0.093,0.69203 0.31937,1.22539 0.771,1.81688 0.35162,0.4605 0.63932,0.91783 0.63932,1.01629 0,0.40366 0.77679,2.65665 0.99364,2.88189 0.12859,0.13357 0.51733,0.83347 0.86387,1.55535 0.34653,0.72187 0.70425,1.43906 0.79488,1.59375 0.0907,0.15469 0.32757,0.63525 0.52645,1.06792 0.30283,0.65882 0.48896,0.82097 1.14534,0.99773 0.54443,0.14659 0.93424,0.1527 1.27665,0.02 0.27111,-0.1051 0.94733,-0.1792 1.50272,-0.16466 0.88091,0.0231 1.06523,-0.038 1.44413,-0.47852 0.23889,-0.27771 0.56495,-0.50494 0.72457,-0.50494 0.21041,0 0.29025,-0.19344 0.29025,-0.7032 0,-1.05396 0.47398,-3.11239 0.84816,-3.68344 0.18146,-0.27697 0.48782,-0.58807 0.68077,-0.69135 0.27251,-0.14584 0.30917,-0.26559 0.16425,-0.5364 -0.15095,-0.28207 -0.0801,-0.43275 0.37091,-0.789 0.40555,-0.32034 0.55797,-0.60099 0.5592,-1.02967 0.002,-0.6919 0.23335,-0.81694 1.51133,-0.81694 h 0.91646 l -0.0253,-0.6729 c -0.0273,-0.72589 0.23203,-1.00703 0.93322,-1.01173 0.56573,-0.004 0.70395,-0.42525 0.32775,-0.9994 -0.29625,-0.45213 -0.28925,-0.47094 0.267,-0.71716 0.42925,-0.19 0.57124,-0.37632 0.57124,-0.74952 0,-0.27317 -0.11447,-0.5406 -0.25438,-0.5943 -0.13993,-0.0537 -0.30189,-0.45172 -0.35994,-0.88453 -0.058,-0.43279 -0.30218,-1.16863 -0.5425,-1.63517 -0.31944,-0.62017 -0.37391,-0.8709 -0.20255,-0.9324 0.1289,-0.0463 0.23437,-0.16751 0.23437,-0.26942 0,-0.25845 -0.48932,-0.72097 -0.76273,-0.72097 -0.27015,0 -0.12591,-1.64061 0.19736,-2.24464 0.23111,-0.43183 0.75287,-0.51442 0.75287,-0.11917 0,0.14366 0.1137,0.30482 0.25268,0.35816 0.42442,0.16286 0.99609,1.62021 1.89787,4.83821 0.47374,1.69054 1.02853,3.62213 1.23287,4.29244 0.70136,2.30074 1.65262,5.90752 1.95334,7.40625 0.54838,2.73309 1.5135,5.38149 2.12411,5.82885 0.15302,0.11212 0.24289,0.30986 0.19971,0.43942 -0.0616,0.18484 -2.31398,0.24194 -10.45834,0.26507 -10.36129,0.0294 -10.38026,0.0288 -10.63841,-0.36521 z m 16.10805,-7.88606 c -0.12891,-0.052 -0.33985,-0.052 -0.46875,0 -0.12891,0.052 -0.0234,0.0946 0.23437,0.0946 0.25781,0 0.36328,-0.0426 0.23438,-0.0946 z m -1.51229,-1.58903 c 0.0389,-0.40779 0.006,-0.84303 -0.0728,-0.96723 -0.091,-0.14312 -0.14458,-0.0713 -0.1464,0.19606 -0.002,0.24225 -0.11865,0.42188 -0.2748,0.42188 -0.38901,0 -0.66917,0.58042 -0.46463,0.96262 0.30934,0.57799 0.87985,0.21297 0.95865,-0.61333 z m -3.59709,0.1348 c 0,-0.3324 -0.28536,-0.67159 -0.56501,-0.67159 -0.24506,0 -0.31056,0.1026 -0.23931,0.375 0.0797,0.30493 0.80432,0.57212 0.80432,0.29659 z m 2.02888,-3.45405 c 0.28832,-0.23005 0.28326,-0.24574 -0.0601,-0.18598 -0.28374,0.0494 -0.38205,0.22458 -0.40401,0.71998 -0.0187,0.42303 0.003,0.48885 0.0602,0.18596 0.049,-0.25781 0.23082,-0.58179 0.40399,-0.71996 z m -54.58952,12.95433 c -0.0455,-0.0773 -0.14428,-0.43593 -0.21945,-0.79687 l -0.13668,-0.65625 0.57215,0.53994 c 0.3426,0.32333 0.97159,0.63664 1.56776,0.78094 l 0.99561,0.24098 -1.34831,0.0159 c -0.74156,0.009 -1.38555,-0.0473 -1.43108,-0.12468 z m -0.65793,-2.09954 c -0.10967,-0.31462 -0.15953,-0.57206 -0.11078,-0.57206 0.12658,0 0.48038,0.97397 0.38753,1.06682 -0.0425,0.0425 -0.16707,-0.18011 -0.27675,-0.49476 z m -0.93848,-2.54884 c -0.31414,-0.68949 -0.25421,-0.83658 0.0855,-0.20977 0.15863,0.29271 0.25333,0.56728 0.21045,0.61016 -0.0429,0.0429 -0.17604,-0.13729 -0.29593,-0.40039 z m -2.7435,-8.17419 c -0.88736,-2.69552 -1.58432,-4.98817 -1.54879,-5.09477 0.0355,-0.10659 0.17513,0.0949 0.3102,0.44785 0.13508,0.35289 0.35425,0.89476 0.48702,1.20414 0.63691,1.48412 0.83407,2.05717 1.54824,4.5 0.81997,2.80479 1.06667,3.84375 0.91269,3.84375 -0.0528,0 -0.822,-2.20543 -1.70936,-4.90097 z m -2.21175,-6.85246 c -0.24493,-0.42924 -1.09957,-3.28498 -1.00993,-3.3746 0.0572,-0.0572 0.16031,0.138 0.22916,0.43376 0.0688,0.29576 0.23483,0.71413 0.36883,0.9297 0.29098,0.46806 0.7104,1.95313 0.5866,2.07696 -0.048,0.048 -0.12662,0.0184 -0.17466,-0.0658 z m -1.82295,-5.43708 c -0.22517,-0.60007 -0.60802,-1.68169 -0.85084,-2.40356 -0.24279,-0.72188 -1.37462,-4.05182 -2.51518,-7.39988 -1.14054,-3.34805 -2.07373,-6.1704 -2.07373,-6.27187 0,-0.36686 0.35117,0.17846 0.65396,1.0155 0.16785,0.46406 0.71447,1.98281 1.21468,3.375 0.50022,1.39219 1.12815,3.10462 1.39542,3.80541 0.26726,0.70078 0.48594,1.43666 0.48594,1.63528 0,0.19862 0.21703,0.84868 0.48229,1.44459 0.86512,1.94349 1.93605,5.57138 1.71105,5.79638 -0.0518,0.0518 -0.27844,-0.39675 -0.50359,-0.99685 z m 62.529,0.31519 c -0.0637,-0.10313 -0.0265,-0.1875 0.0827,-0.1875 0.1092,0 0.19856,0.0844 0.19856,0.1875 0,0.10312 -0.0372,0.1875 -0.0827,0.1875 -0.0455,0 -0.13483,-0.0844 -0.19856,-0.1875 z m -0.17196,-0.72484 c -0.0807,-0.13069 -0.0962,-0.28824 -0.0343,-0.35014 0.1678,-0.16781 0.35076,0.079 0.26014,0.35089 -0.0635,0.19054 -0.10768,0.19039 -0.22583,0 z m -2.34305,-3.34899 c -0.58946,-0.1111 -1.16295,-0.7963 -1.05469,-1.26017 0.11207,-0.48008 -0.21495,-0.8535 -0.74741,-0.8535 -0.3132,0 -0.48392,-0.162 -0.63872,-0.60606 -0.11619,-0.33332 -0.4545,-0.86066 -0.75178,-1.17187 -0.29726,-0.3112 -0.77998,-0.95798 -1.07269,-1.43728 -0.88971,-1.45686 -3.48497,-5.26122 -4.00395,-5.8693 -0.26837,-0.31445 -0.73609,-0.97237 -1.03935,-1.46203 -0.30326,-0.48965 -0.6078,-0.89044 -0.67672,-0.89062 -0.069,-1.9e-4 -0.31714,-0.31675 -0.55157,-0.70347 -0.23442,-0.38671 -0.72645,-1.08281 -1.09341,-1.54687 -1.46357,-1.85085 -1.83377,-1.98859 -6.00606,-2.23444 -1.89532,-0.11169 -5.6555,-0.20306 -8.35593,-0.20306 h -4.9099 l -0.71711,0.56989 c -0.71434,0.56767 -1.62726,1.95834 -2.01292,3.06628 -0.11155,0.32042 -0.46527,0.96227 -0.78604,1.42633 -0.3208,0.46406 -0.82545,1.39219 -1.12148,2.0625 -0.90609,2.05172 -2.69021,5.69713 -2.98224,6.09345 -0.15186,0.2061 -0.33068,0.32014 -0.39737,0.25344 -0.105,-0.105 0.65597,-2.05697 1.77988,-4.56564 1.67063,-3.72898 2.14442,-4.75284 2.99348,-6.46875 0.53578,-1.08281 1.11727,-2.34844 1.29221,-2.8125 l 0.31804,-0.84375 8.33945,0.067 c 7.39723,0.0594 8.48423,0.0307 9.62082,-0.25438 l 1.28137,-0.32135 0.65758,0.62938 c 0.75883,0.72626 3.2979,3.86574 5.96813,7.37936 1.01882,1.34062 2.74777,3.57656 3.84213,4.96875 2.41369,3.07059 2.58764,3.31989 3.44149,4.93249 0.64371,1.21573 0.66152,1.29797 0.37558,1.73437 -0.16511,0.25198 -0.35377,0.44665 -0.41925,0.4326 -0.0655,-0.0141 -0.32268,-0.0639 -0.57157,-0.11079 z m -42.03289,-5.67428 c -0.16384,-0.0958 -0.52836,-0.9159 -0.81004,-1.82242 -0.28168,-0.90653 -0.59962,-1.90135 -0.70657,-2.21072 -0.10693,-0.30938 -0.25571,-0.91661 -0.3306,-1.3494 -0.0749,-0.43279 -0.22588,-0.89685 -0.33553,-1.03125 -0.10965,-0.1344 -0.30724,-0.62404 -0.43907,-1.0881 -0.13183,-0.46406 -0.29786,-0.92813 -0.36895,-1.03125 -0.0711,-0.10313 -0.35793,-0.94688 -0.63744,-1.875 -0.27951,-0.92813 -0.63572,-2.025 -0.79155,-2.4375 -0.15585,-0.4125 -0.39405,-1.17188 -0.52933,-1.6875 -0.28644,-1.0917 -0.52534,-1.79224 -1.18288,-3.46875 -0.65854,-1.67906 -1.53488,-4.10411 -1.72778,-4.78125 -0.0881,-0.30938 -0.59203,-1.78594 -1.1198,-3.28125 -0.52776,-1.49531 -1.0749,-3.09844 -1.21587,-3.5625 -0.33258,-1.09496 -0.63416,-1.95634 -1.05035,-3 -0.18506,-0.46406 -0.38378,-1.1247 -0.44158,-1.46809 -0.0578,-0.34339 -0.22335,-0.89182 -0.36788,-1.21875 -0.1445,-0.32692 -0.39039,-0.9741 -0.54641,-1.43816 -0.61749,-1.83681 -0.91485,-2.50656 -1.40351,-3.16123 -0.65483,-0.87728 -0.89481,-1.07057 -1.8978,-1.52865 -0.45422,-0.20743 -0.78321,-0.41981 -0.73108,-0.47194 0.10068,-0.10071 2.70099,0.40603 2.98531,0.58176 0.34146,0.21103 0.72803,1.23984 2.60155,6.92381 1.05375,3.19687 2.5901,7.79531 3.41417,10.21875 0.82404,2.42344 1.79632,5.33437 2.16062,6.46875 0.36429,1.13437 0.95242,2.77969 1.30695,3.65625 0.35454,0.87656 0.98259,2.64844 1.39569,3.9375 0.4131,1.28906 1.24042,3.82031 1.83851,5.625 0.95957,2.89551 1.45446,4.69929 1.28449,4.6818 -0.0304,-0.003 -0.18943,-0.0841 -0.35327,-0.17991 z m -24.52751,-9.77987 c -0.25446,-0.72993 -0.28048,-1.34587 -0.0384,-0.90952 0.17556,0.31648 0.42409,1.5 0.31498,1.5 -0.0389,0 -0.16335,-0.26573 -0.27656,-0.59048 z m -0.91513,-2.72593 c -0.10909,-0.39317 -0.41601,-1.33464 -0.68203,-2.09218 -0.53237,-1.51597 -0.61802,-2.08519 -0.19718,-1.31027 0.483,0.88935 1.38866,3.8062 1.23083,3.96403 -0.0843,0.0843 -0.24252,-0.16841 -0.35162,-0.56158 z m -6.69182,-20.44922 c -1.01125,-3.06796 -2.11547,-6.3375 -2.45383,-7.26562 -0.33837,-0.92813 -0.67326,-1.91953 -0.74421,-2.20313 l -0.129,-0.51562 2.1297,-0.0272 c 4.8876,-0.0625 9.42617,0.0643 12.05496,0.33699 2.87737,0.29844 4.73973,0.73206 2.27415,0.5295 -9.55176,-0.78476 -13.42268,-0.66128 -14.43792,0.46054 -0.25852,0.28569 -0.30963,0.60543 -0.24708,1.54582 0.0434,0.65211 0.17304,1.43876 0.28817,1.74814 0.1151,0.30937 0.38998,1.2375 0.61083,2.0625 0.22086,0.825 0.56273,1.94614 0.7597,2.49141 0.19698,0.54526 0.35814,1.1427 0.35814,1.32759 0,0.18491 0.21058,0.75127 0.46796,1.25859 0.25738,0.50732 0.46832,1.1394 0.46875,1.40464 0,0.26522 0.13684,0.88151 0.30313,1.36954 0.16628,0.488 0.26472,0.92492 0.21876,0.97089 -0.046,0.046 -0.91097,-2.42657 -1.92221,-5.49454 z M 412.95493,201.2535 c -0.24287,-0.26325 -0.90562,-0.84671 -1.47281,-1.29656 -0.56719,-0.44987 -1.23516,-1.18369 -1.48438,-1.63073 -0.32104,-0.57589 -0.36137,-0.73725 -0.1383,-0.55355 0.45778,0.37698 3.74374,3.95949 3.63174,3.95949 -0.0521,0 -0.2934,-0.2154 -0.53625,-0.47865 z"
       id="path1342"
       sodipodi:nodetypes="ssssssssssssssssscsssssssssssssssssssssssssssssscscsssssssssssssssssssssssssccsssssssscsscccsscssccssssssssssssssssssssssssssssssssssssssssscssccssssssssssssscssssssssscsscsssssssssssssssssssssssssssssssssssscsssssssssssssscsssssssssscssssssssss" />
  </g>
</svg>
